# xmcd CD database file
#
# Track frame offsets:
#	150
#	22087
#	37987
#	52237
#	72787
#	85600
#	103562
#	116362
#	135037
#	150500
#	161650
#	172112
#	190300
#
# Disc length: 2710 seconds
#
# Revision: 0
# Processed by: cddbd v1.4PL0 Copyright (c) Steve Scherf et al.
# Submitted via: CDex 1.50Beta5
#
DISCID=a00a940d
DTITLE=Herb Ellis and Joe Pass - Two for the Road
DYEAR=1900
DGENRE=Jazz
TTITLE0=Love for Sale
TTITLE1=Carnival
TTITLE2=Am I Blue?
TTITLE3=Seven Come Eleven
TTITLE4=Guitar Blues
TTITLE5=Lady Be Good
TTITLE6=Cherokee (Concept 1)
TTITLE7=Cherokee (Concept 2)
TTITLE8=Seulb
TTITLE9=Gee, Baby Ain't I Good to You
TTITLE10=Try a Little Tenderness
TTITLE11=I've Found a New Baby
TTITLE12=Angel Eyes
EXTD=
EXTT0=
EXTT1=
EXTT2=
EXTT3=
EXTT4=
EXTT5=
EXTT6=
EXTT7=
EXTT8=
EXTT9=
EXTT10=
EXTT11=
EXTT12=
PLAYORDER=
